# xmcd CD database file
#
# Track frame offsets:
#	150
#	13973
#	28711
#	43274
#	60254
#	80258
#	96242
#	111498
#	126173
#	144033
#	158248
#	169511
#	186765
#	198854
#	213237
#	227586
#	238231
#	247845
#	257775
#	278559
#
# Disc length: 4021 seconds
#
# Revision: 0
# Processed by: cddbd v1.5.2PL0 Copyright (c) Steve Scherf et al.
# Submitted via: CDex 1.70beta2
#
DISCID=0b0fb314
DTITLE=Bent Fabric - Jukebox
DYEAR=2006
DGENRE=Jazz
TTITLE0=Sweet Senorita
TTITLE1=Jukebox
TTITLE2=Everytime
TTITLE3=Keep On Rising
TTITLE4=Just Be There For Me
TTITLE5=Haven't You Noticed
TTITLE6=Pusterummet
TTITLE7=Jukebox (Instrumental)
TTITLE8=Don't Forget To Say Hello
TTITLE9=Winter Blues Bossa Nova
TTITLE10=Good Morning
TTITLE11=In The Middle Of A Sonic
TTITLE12=Jeopardy
TTITLE13=Norwegian Sunset
TTITLE14=Seeing You
TTITLE15=Alley Cat
TTITLE16=Jukebox (Contemporary Version)
TTITLE17=Matador
TTITLE18=Matador-Musical Mix
TTITLE19=[DataTrack]
EXTD=YEAR: 2006
EXTT0=
EXTT1=
EXTT2=
EXTT3=
EXTT4=
EXTT5=
EXTT6=
EXTT7=
EXTT8=
EXTT9=
EXTT10=
EXTT11=
EXTT12=
EXTT13=
EXTT14=
EXTT15=
EXTT16=
EXTT17=
EXTT18=
EXTT19=
PLAYORDER=
